PathFileType	4	(X/Y/Z)	c:/Users/goper/Files/vsCode/490R/osim_files/C10/C10_Slow_06.trc
DataRate	CameraRate	NumFrames	NumMarkers	Units                	OrigDataRate	OrigDataStartFrame	OrigNumFrames
250.00	250.00	9	36	mm	250.0	1026	2735
                Frame#	Time	LPSIS			LASIS			LTH1			LTH2			LTH3			LTH4			LLFE			LMFE			LSH1			LSH2			LSH3			LSH4			LLMAL			LMMAL			LCAL			LMTP5			LTOE			LMTP1			RPSIS			RASIS			RTH1			RTH2			RTH3			RTH4			RLFE			RMFE			RSH1			RSH2			RSH3			RSH4			RLMAL			RMMAL			RCAL			RMTP1			RTOE			RMTP5		
		X1	Y1	Z1	X2	Y2	Z2	X3	Y3	Z3	X4	Y4	Z4	X5	Y5	Z5	X6	Y6	Z6	X7	Y7	Z7	X8	Y8	Z8	X9	Y9	Z9	X10	Y10	Z10	X11	Y11	Z11	X12	Y12	Z12	X13	Y13	Z13	X14	Y14	Z14	X15	Y15	Z15	X16	Y16	Z16	X17	Y17	Z17	X18	Y18	Z18	X19	Y19	Z19	X20	Y20	Z20	X21	Y21	Z21	X22	Y22	Z22	X23	Y23	Z23	X24	Y24	Z24	X25	Y25	Z25	X26	Y26	Z26	X27	Y27	Z27	X28	Y28	Z28	X29	Y29	Z29	X30	Y30	Z30	X31	Y31	Z31	X32	Y32	Z32	X33	Y33	Z33	X34	Y34	Z34	X35	Y35	Z35	X36	Y36	Z36

1026	4.10000	553.62042	1006.90454	265.81995	398.28180	992.46289	394.76883	390.59610	758.49164	439.44717	366.77438	717.41559	437.31778	338.44684	783.30829	424.18430	323.78882	738.67981	420.46323	244.60193	508.85864	367.65530	238.13977	502.43762	248.19128	280.34964	419.49091	379.92755	272.99396	374.19052	384.63864	220.07254	426.43942	369.63675	221.28714	379.95636	374.79044	214.17870	106.73613	359.08237	0.00000	0.00000	0.00000	268.16141	38.09209	319.67331	98.43353	70.95895	381.11581	50.64457	95.65289	316.38205	79.29402	56.36214	274.69354	547.56354	1016.88733	184.90118	392.08139	992.19537	58.04130	499.58380	740.94177	25.65812	495.27875	696.90607	29.39425	437.97949	740.19727	22.41399	441.41089	695.83490	26.91282	501.56049	474.44547	98.86254	488.24936	470.24396	209.83253	586.53833	393.79419	92.55082	588.93243	350.04730	93.79174	524.65948	382.97424	98.99297	537.11310	341.80771	97.38300	610.41174	87.68584	157.41699	590.10846	78.37516	241.89313	669.97937	42.28588	199.33768	475.55087	27.80943	221.61343	445.83133	46.85280	193.72774	495.92618	31.30431	130.10924
1027	4.10400	549.58643	1006.30408	266.07590	394.56842	991.89923	395.04068	387.05356	757.41864	439.53104	363.31000	716.30566	437.28989	334.78387	782.09021	424.37750	320.29291	737.46112	420.53778	240.35147	508.51593	367.43970	234.63860	501.81952	247.86206	274.21432	418.59863	379.92352	265.81149	373.44955	383.65237	214.22374	426.66846	369.16943	215.32126	380.54150	373.14969	201.55466	107.14920	358.46536	0.00000	0.00000	0.00000	254.82303	37.54572	319.89636	85.03376	73.42242	379.43738	38.25732	98.49921	314.02905	66.66959	58.45686	272.91824	543.52539	1016.35699	185.08778	387.77081	991.56396	58.30865	496.48843	740.71631	25.89004	492.34943	696.69373	29.55474	434.91376	739.72040	22.53069	438.51437	695.43219	26.99091	499.70633	474.22806	98.95862	486.29984	469.90234	209.85902	585.07678	393.97824	92.66866	587.65948	350.24689	93.88637	523.20630	382.83575	99.13876	535.82135	341.72430	97.49349	610.27069	87.97228	157.48956	590.04181	78.35783	241.98418	669.99792	42.42546	199.37010	475.60126	27.79478	221.63033	445.78394	46.80328	193.71364	495.92798	31.28964	130.10283
1028	4.10800	545.60986	1005.82532	266.24686	390.22507	991.10950	395.10300	383.79364	756.45721	439.66776	360.16360	715.28802	437.33188	331.13385	780.85016	424.49490	316.72266	736.21136	420.58487	236.01129	508.14566	367.18750	231.16306	501.17670	247.52986	268.29892	417.82693	379.95255	258.77649	372.79187	383.67307	208.45213	426.93884	368.61972	208.97858	380.88461	371.36536	189.17668	107.66879	357.87231	0.00000	0.00000	0.00000	241.74751	37.11536	320.05759	71.89764	75.95290	377.64117	26.13832	101.42109	311.62308	54.36892	60.64552	271.07159	539.55072	1015.89233	185.25475	383.47244	990.89465	58.53740	493.30270	740.53149	26.11447	489.40259	696.47913	29.71609	431.72516	739.26965	22.69438	434.86316	694.87750	27.49998	497.86310	474.04025	99.04082	484.89603	469.93762	210.01469	583.53156	394.12906	92.85499	586.34766	350.40665	94.06161	521.72504	382.71228	99.21889	534.97742	341.38379	97.73290	610.02972	88.12709	157.51898	590.02496	78.41219	242.10269	670.01251	42.58494	199.38832	475.73740	27.93758	221.71527	445.77411	46.77309	193.70296	495.91882	31.28559	130.08951
1029	4.11200	541.64069	1005.29108	266.47546	386.21674	990.40582	395.24915	379.95850	755.34186	439.64240	356.47009	714.07751	437.27386	327.41730	779.65594	424.61838	313.20416	734.93420	420.63467	231.59587	507.80200	366.97488	227.72044	500.46814	247.29880	262.38052	417.01251	380.09692	252.43245	372.85117	383.81531	202.71365	427.21088	368.07208	201.92059	380.87451	370.79034	177.21408	108.26937	357.18082	0.00000	0.00000	0.00000	228.91595	36.77566	320.18408	59.16243	78.54234	375.70938	14.42009	104.46505	309.01929	42.42636	62.98864	269.03079	535.53552	1015.42676	185.42123	379.14749	990.19141	58.79036	490.15323	740.38214	26.29638	486.44363	696.27417	29.85703	428.56711	738.78149	22.80441	431.86981	694.36310	27.63424	495.92844	473.82242	99.15797	482.99631	469.62686	210.11424	582.03442	394.29666	93.00067	585.04272	350.59946	94.19884	520.32971	382.62515	99.29913	533.31390	341.62695	97.71137	609.84973	88.36476	157.57518	590.01331	78.47546	242.18434	670.04260	42.79133	199.35855	475.84961	28.09466	221.74963	445.78409	46.74002	193.67146	495.93344	31.26676	130.08273
1030	4.11600	537.54346	1004.76105	266.74469	382.09601	989.71838	395.37943	376.27106	754.29388	439.71838	352.92776	712.97076	437.28723	323.64999	778.48187	424.75397	309.63693	733.74213	420.70718	226.29700	508.10608	366.67072	224.33543	499.72012	247.13133	256.28299	416.20483	380.25317	244.77484	371.60489	383.80554	196.96385	427.41760	367.55334	195.55556	381.57407	370.32275	165.32970	108.93044	356.48401	0.00000	0.00000	0.00000	216.32285	36.53741	320.27103	46.59215	81.24761	373.71466	3.04283	107.62836	306.40927	30.80080	65.49324	266.94730	531.46173	1014.89801	185.61703	374.84503	989.51953	59.05056	486.94962	740.13586	26.51060	483.42999	696.05658	30.01389	425.36539	738.32904	22.92375	429.60718	694.09851	27.28131	493.97949	473.59955	99.29071	480.92407	468.93826	210.33714	580.49194	394.49127	93.17654	584.02783	351.00806	94.22498	518.80554	382.51132	99.43899	531.99530	341.60596	97.79330	609.67065	88.62204	157.63008	589.91687	78.53726	242.34163	670.02161	42.95198	199.38379	475.86520	28.12728	221.74989	445.64832	46.73562	193.77194	495.94543	31.26174	130.07257
1031	4.12000	533.44202	1004.17169	267.05258	377.90659	988.95605	395.48251	372.55389	753.28040	439.81894	349.34683	711.91809	437.35046	319.78333	777.31360	424.84335	305.91599	732.54120	420.73505	221.74207	507.72430	366.48047	220.85811	498.93652	246.87775	250.04742	415.28741	380.34650	237.72693	370.99420	383.87839	191.20619	427.61090	367.06866	188.94313	381.89011	369.84561	153.69005	109.62762	355.78479	0.00000	0.00000	0.00000	204.00925	36.37535	320.26801	34.55260	84.23632	371.92609	-7.94092	110.93661	303.77838	19.46606	68.00922	264.93671	527.36719	1014.38641	185.81029	371.93192	989.01379	58.71455	483.71002	739.93469	26.68941	480.42230	695.80328	30.16047	421.27628	737.56268	23.50966	426.55859	693.60413	27.39655	492.04987	473.39236	99.39532	478.76099	468.67365	210.45384	578.95715	394.63086	93.38706	582.37878	351.00497	94.53673	517.27618	382.40326	99.52360	530.70660	341.53955	97.90958	609.48462	88.88237	157.70337	589.76355	78.64314	242.48717	669.93823	43.07300	199.41939	475.69711	28.01046	221.64592	445.68332	46.65420	193.65430	495.96841	31.24377	130.07224
1032	4.12400	529.31775	1003.63190	267.33536	373.73502	988.22620	395.59106	368.78821	752.31689	439.92941	345.68262	710.87097	437.42615	315.98196	776.15222	424.95294	302.20355	731.37872	420.84042	217.13139	507.21225	366.29794	217.36850	498.11359	246.68031	243.81950	414.45734	380.54492	231.27220	371.02380	384.03952	185.47588	427.79013	366.57812	182.29898	382.15573	369.33398	142.46417	110.37609	354.96567	0.00000	0.00000	0.00000	191.93629	36.23202	320.20810	22.54166	86.68106	369.56781	-18.60769	114.36491	301.18008	8.63818	71.09721	262.56406	523.18671	1013.81647	186.04791	367.71332	988.29413	58.91677	480.54156	739.76910	26.88060	477.44189	695.60681	30.30092	418.94574	737.39600	23.16849	423.47659	693.12604	27.51491	490.05856	473.19666	99.53492	476.50082	468.44800	210.51981	577.38824	394.83856	93.56793	581.05267	351.22040	94.70589	515.73322	382.29556	99.62666	529.38544	341.50406	97.99430	609.27014	89.16389	157.75221	589.53754	78.75688	242.67029	669.84387	43.20838	199.47238	475.53513	27.92110	221.51781	445.62631	46.62240	193.64201	495.95401	31.25141	130.07350
1033	4.12800	525.19794	1003.00287	267.64658	369.53897	987.46692	395.70029	364.95633	751.31036	440.03656	341.96835	709.85846	437.51611	312.15610	775.06696	425.06332	298.50647	730.27686	420.94196	212.70274	506.86957	366.25372	213.91602	497.28366	246.53470	237.53709	413.44412	380.63757	223.80801	369.85382	384.06845	179.86237	427.88794	366.13776	175.83369	382.40466	368.80200	131.57855	111.09138	354.19272	0.00000	0.00000	0.00000	180.00180	36.03103	320.08871	11.12595	89.43976	367.45285	-28.71552	117.88795	298.56415	-2.00368	74.15601	260.29486	519.03497	1013.25787	186.28912	363.48093	987.54871	59.13963	477.49057	739.58856	27.03753	474.27319	695.40656	30.46972	415.67505	736.83820	23.26950	420.46271	692.64618	27.56675	488.06747	472.99258	99.64504	474.28723	468.14566	210.61772	576.04907	395.23184	93.60995	579.68884	351.44443	94.89408	514.21820	382.21494	99.71735	528.03088	341.60379	98.16664	609.06976	89.44221	157.82101	589.47491	78.76040	242.81673	669.77246	43.27226	199.56009	475.46970	27.78844	221.49298	445.49203	46.58456	193.78979	495.98108	31.25433	130.07306
1034	4.13200	521.07794	1002.39215	267.96896	365.52618	986.88544	395.87076	361.17270	750.41742	440.22098	338.28665	708.94287	437.62857	308.29584	774.04901	425.18866	294.72607	729.22253	421.04193	208.39183	506.38419	366.19806	210.35605	496.39032	246.38980	231.56110	412.66055	380.90170	217.06531	369.31967	384.15308	174.33751	427.93680	365.74783	169.41737	382.61237	368.28647	121.15211	111.75163	353.38666	0.00000	0.00000	0.00000	168.47675	35.83231	319.84140	0.21609	92.37650	365.48972	-38.46056	121.41840	296.01172	-12.26566	77.07519	258.16293	514.89062	1012.68085	186.50859	359.20554	986.78223	59.35796	474.70303	739.52985	27.18209	471.16428	695.13739	30.62169	411.95972	736.33026	23.40272	417.29791	692.19147	27.65158	486.04343	472.78473	99.73666	472.11798	467.76868	210.67519	574.12170	395.22433	93.91208	578.28064	351.65430	95.02226	512.58374	382.10056	99.82535	526.65497	341.44781	98.19234	608.82916	89.77679	157.86816	589.43970	78.78333	242.92432	669.73779	43.39112	199.61752	475.46118	27.76646	221.51895	445.46857	46.52885	193.79036	495.98993	31.23408	130.05954
